<svg width="59" height="74" viewBox="0 0 59 74" fill="none" xmlns="http://www.w3.org/2000/svg">
<path fill-rule="evenodd" clip-rule="evenodd" d="M29.5 73.1848L31.6559 71.3023C49.7852 55.4722 59 41.6499 59 29.5C59 12.2938 45.5708 0 29.5 0C13.4292 0 0 12.2938 0 29.5C0 41.6499 9.21484 55.4722 27.3441 71.3023L29.5 73.1848ZM29.5 64.4523C14.1161 50.5877 6.55556 38.8391 6.55556 29.5C6.55556 16.05 16.9268 6.55556 29.5 6.55556C42.0732 6.55556 52.4444 16.05 52.4444 29.5C52.4444 38.8391 44.8839 50.5877 29.5 64.4523ZM29.5 13.1111C38.5513 13.1111 45.8889 20.4487 45.8889 29.5C45.8889 38.5513 38.5513 45.8889 29.5 45.8889C20.4487 45.8889 13.1111 38.5513 13.1111 29.5C13.1111 20.4487 20.4487 13.1111 29.5 13.1111ZM19.6667 29.5C19.6667 24.0692 24.0692 19.6667 29.5 19.6667C34.9308 19.6667 39.3333 24.0692 39.3333 29.5C39.3333 34.9308 34.9308 39.3333 29.5 39.3333C24.0692 39.3333 19.6667 34.9308 19.6667 29.5Z" fill="white"/>
</svg>
