<svg width="60" height="60" viewBox="0 0 60 60" fill="none" xmlns="http://www.w3.org/2000/svg">
<path fill-rule="evenodd" clip-rule="evenodd" d="M60 30C60 46.5685 46.5685 60 30 60C13.4315 60 0 46.5685 0 30C0 13.4315 13.4315 0 30 0C46.5685 0 60 13.4315 60 30ZM30.9815 46.6906H30.9888C40.8244 46.6866 48.8237 38.6853 48.8277 28.8519C48.8296 24.0854 46.9757 19.6035 43.6078 16.2318C40.2398 12.8598 35.7608 11.0021 30.9887 11C21.156 11 13.1535 19.0021 13.1496 28.8378C13.1482 31.9819 13.9697 35.0506 15.5308 37.7561L13 47L22.4567 44.5193C25.0623 45.9405 27.9959 46.6896 30.9815 46.6906Z" fill="white"/>
<path fill-rule="evenodd" clip-rule="evenodd" d="M23.4363 41.6113L22.8949 41.29L17.2831 42.7621L18.781 37.2907L18.4285 36.7297C16.9442 34.369 16.1604 31.6406 16.1615 28.839C16.1647 20.664 22.8162 14.0132 30.9947 14.0132C34.955 14.0146 38.6778 15.5588 41.4771 18.3614C44.2765 21.164 45.8172 24.8891 45.8157 28.851C45.8124 37.0266 39.1611 43.6781 30.9889 43.6781H30.9829C28.3223 43.677 25.7128 42.9622 23.4363 41.6113ZM39.3655 32.6927C39.6764 32.843 39.8864 32.9444 39.976 33.0941C40.0874 33.2799 40.0874 34.1723 39.7161 35.2137C39.3446 36.2549 37.5638 37.2051 36.7074 37.333C35.9395 37.4479 34.9677 37.4958 33.9 37.1564C33.2526 36.951 32.4224 36.6768 31.3589 36.2175C27.1802 34.4132 24.3563 30.3631 23.8226 29.5977C23.7852 29.5441 23.7591 29.5065 23.7445 29.4871L23.7409 29.4823C23.505 29.1675 21.9244 27.0587 21.9244 24.8761C21.9244 22.8229 22.933 21.7468 23.3972 21.2514C23.429 21.2175 23.4583 21.1863 23.4845 21.1576C23.893 20.7114 24.3759 20.5998 24.6731 20.5998C24.9702 20.5998 25.2677 20.6026 25.5274 20.6156C25.5594 20.6172 25.5927 20.617 25.6272 20.6168C25.887 20.6153 26.2108 20.6134 26.5303 21.3808C26.6532 21.6761 26.833 22.1139 27.0227 22.5757C27.4062 23.5094 27.83 24.5411 27.9045 24.6904C28.016 24.9135 28.0903 25.1737 27.9417 25.4713C27.9194 25.516 27.8988 25.5581 27.879 25.5983C27.7675 25.8261 27.6854 25.9937 27.496 26.2149C27.4215 26.3018 27.3445 26.3956 27.2675 26.4893C27.1142 26.676 26.9609 26.8628 26.8274 26.9958C26.6042 27.2181 26.3719 27.4592 26.6319 27.9055C26.8919 28.3517 27.7865 29.8113 29.1116 30.9932C30.536 32.2638 31.774 32.8008 32.4015 33.0729C32.524 33.1261 32.6233 33.1691 32.6961 33.2056C33.1417 33.4288 33.4017 33.3914 33.6617 33.0941C33.9218 32.7966 34.776 31.7925 35.0731 31.3463C35.3702 30.9002 35.6675 30.9745 36.0759 31.1232C36.4846 31.2721 38.676 32.3503 39.1218 32.5734C39.2088 32.617 39.2901 32.6563 39.3655 32.6927Z" fill="white"/>
</svg>
