<svg width="60" height="60" viewBox="0 0 60 60" fill="none" xmlns="http://www.w3.org/2000/svg">
<path fill-rule="evenodd" clip-rule="evenodd" d="M26.1433 18.7012C27.6718 16.6414 28.2199 14.4704 26.4912 12.5541C22.6118 7.12575 20.0027 3.76885 18.3662 2.15224C15.255 -0.921124 10.137 -0.505402 7.4425 2.14962C5.99524 3.57566 5.50529 4.06536 4.01926 5.57474C-4.25809 13.8565 0.789867 31.364 14.2092 44.7965C27.6255 58.2259 45.1312 63.2766 53.426 54.9773C54.7972 53.6553 55.9582 52.4937 56.8739 51.5259C59.5145 48.7349 59.9153 43.8427 56.8565 40.6644C55.2883 39.0349 52.0872 36.5519 46.4304 32.5055C44.6979 30.9563 42.6437 31.2921 40.7603 32.5277C39.8544 33.122 39.1952 33.7232 37.9503 34.9694L35.6897 37.2312C35.3919 37.5291 31.3489 35.5044 27.4243 31.5759C23.4975 27.6453 21.4742 23.6021 21.7705 23.3057C22.3817 22.6947 23.1357 21.9402 24.0327 21.0423C24.4277 20.647 24.6165 20.4556 24.8586 20.201C25.3632 19.6708 25.7809 19.1896 26.1433 18.7012ZM39.8596 41.4029L42.1207 39.1406C42.8058 38.4548 43.2499 38.0331 43.6111 37.7424C48.5665 41.301 51.4364 43.5386 52.6086 44.7566C53.3124 45.4879 53.203 46.8223 52.5912 47.4689C51.7445 48.3639 50.6445 49.4645 49.2945 50.7666C43.9309 56.1325 29.7998 52.0555 18.3801 40.6245C6.95677 29.19 2.88171 15.0568 8.20487 9.73071C9.6849 8.22754 10.1538 7.75886 11.5804 6.35318C12.1153 5.82613 13.5723 5.70778 14.223 6.35055C15.483 7.59518 17.8201 10.5878 21.2583 15.377C21.0803 15.598 20.858 15.8477 20.5874 16.132C20.3889 16.3407 20.2235 16.5084 19.8618 16.8704C18.9655 17.7676 18.2122 18.5213 17.6019 19.1316C13.7573 22.9759 17.0315 29.5187 23.2534 35.7467C29.4711 41.9705 36.0163 45.2484 39.8596 41.4029ZM34.3996 0.207439C47.1545 1.75348 57.2681 11.8671 58.8141 24.6219L52.9861 25.5932C51.8608 15.3194 43.7021 7.16075 33.4283 6.03546L34.3996 0.207439ZM32.456 11.8687C40.2492 12.5657 46.4559 18.7725 47.1529 26.5656L41.3062 27.54C41.0581 22.227 36.7946 17.9635 31.4816 17.7154L32.456 11.8687Z" fill="white"/>
</svg>
