<svg width="56" height="43" viewBox="0 0 56 43" fill="none" xmlns="http://www.w3.org/2000/svg">
<path fill-rule="evenodd" clip-rule="evenodd" d="M47.4793 32.2421C54.1113 29.9131 57.5997 22.6488 55.2707 16.0167C53.1495 9.97643 46.9344 6.54387 40.8317 7.73896C36.3041 1.37939 28.0044 -1.38666 20.4184 1.27729C14.7827 3.25635 10.6151 7.86306 9.10904 13.4779C2.34041 16.8886 -0.974439 24.8656 1.5905 32.1696C4.38525 40.1281 13.1024 44.3141 21.0609 41.5193L47.4793 32.2421ZM50.4674 17.7035C51.8647 21.6827 49.7717 26.0413 45.7925 27.4387L19.3741 36.716C14.0685 38.5791 8.25701 35.7885 6.39385 30.4828C4.58094 25.3203 7.17505 19.6523 12.2445 17.6454L13.5496 17.1287L13.8092 15.7493C14.6448 11.3077 17.7639 7.60514 22.1052 6.08063C27.992 4.01338 34.4837 6.5258 37.4614 11.9277L38.523 13.8535L40.5826 13.0829C40.6197 13.0691 40.6383 13.0623 40.657 13.0555C40.6757 13.0487 40.6945 13.042 40.7322 13.0287C44.7114 11.6313 49.07 13.7243 50.4674 17.7035Z" fill="#448B96"/>
</svg>
