<svg width="62" height="73" viewBox="0 0 62 73" fill="none" xmlns="http://www.w3.org/2000/svg">
<path fill-rule="evenodd" clip-rule="evenodd" d="M4.5554 54.5606C11.1686 69.3476 28.0639 76.6565 43.8837 69.5815C59.7034 62.5064 65.5187 45.0406 58.9056 30.2536C55.9346 23.6107 50.1722 16.7264 42.4547 10.5805C31.4554 1.82092 23.8442 -1.17082 15.6848 2.4783L12.6654 3.82869C4.42583 7.51366 0.812553 17.106 0.853052 29.3835C0.892186 41.2465 1.83449 48.4767 4.5554 54.5606ZM52.8667 32.9546C58.0382 44.518 53.5445 58.0143 41.1829 63.5428C28.8213 69.0713 15.7658 63.4234 10.5943 51.8601C8.34757 46.8363 7.5047 40.369 7.46839 29.3618C7.43559 19.4212 10.1566 12.1977 15.3662 9.8678L18.3856 8.51741C23.5246 6.21911 29.1212 8.41896 38.3336 15.7555C45.2776 21.2855 50.3673 27.366 52.8667 32.9546ZM36.7942 53.7295C30.1238 56.7127 22.298 53.7237 19.3148 47.0533C16.2106 40.1124 18.4019 30.2504 24.9782 27.3093C31.5546 24.3682 40.3662 29.3092 43.4704 36.2501C46.4536 42.9205 43.4645 50.7463 36.7942 53.7295ZM37.4314 38.9507C38.923 42.2859 37.4285 46.1988 34.0933 47.6904C30.7581 49.182 26.8452 47.6875 25.3536 44.3523C23.5966 40.4237 24.8919 34.5945 27.679 33.348C30.4661 32.1015 35.6745 35.0221 37.4314 38.9507Z" fill="#448B96"/>
</svg>
