<svg width="118" height="118" viewBox="0 0 118 118" fill="none" xmlns="http://www.w3.org/2000/svg">
<path d="M39.3333 26.2222H26.2222V39.3333H39.3333V26.2222ZM39.3333 52.4444H26.2222V65.5556H39.3333V52.4444ZM39.3333 0C32.0894 0 26.2222 5.86722 26.2222 13.1111H39.3333V0ZM65.5556 78.6667H52.4444V91.7778H65.5556V78.6667ZM104.889 0V13.1111H118C118 5.86722 112.133 0 104.889 0ZM65.5556 0H52.4444V13.1111H65.5556V0ZM39.3333 91.7778V78.6667H26.2222C26.2222 85.9106 32.0894 91.7778 39.3333 91.7778ZM104.889 65.5556H118V52.4444H104.889V65.5556ZM104.889 39.3333H118V26.2222H104.889V39.3333ZM104.889 91.7778C112.133 91.7778 118 85.9106 118 78.6667H104.889V91.7778ZM13.1111 26.2222H0V104.889C0 112.133 5.86722 118 13.1111 118H91.7778V104.889H13.1111V26.2222ZM78.6667 13.1111H91.7778V0H78.6667V13.1111ZM78.6667 91.7778H91.7778V78.6667H78.6667V91.7778Z" fill="white"/>
</svg>
