<svg width="42" height="42" viewBox="0 0 42 42" fill="none" xmlns="http://www.w3.org/2000/svg">
<path fill-rule="evenodd" clip-rule="evenodd" d="M20.625 41.25C9.23413 41.25 0 32.0159 0 20.625C0 9.23413 9.23413 0 20.625 0C32.0159 0 41.25 9.23413 41.25 20.625C41.25 32.0159 32.0159 41.25 20.625 41.25ZM20.625 37.5C29.9448 37.5 37.5 29.9448 37.5 20.625C37.5 11.3052 29.9448 3.75 20.625 3.75C11.3052 3.75 3.75 11.3052 3.75 20.625C3.75 29.9448 11.3052 37.5 20.625 37.5ZM13.6742 29.4508L16.3258 26.7992L10.1516 20.625L16.3258 14.4508L13.6742 11.7992L4.84835 20.625L13.6742 29.4508ZM24.9242 14.4508L27.5758 11.7992L36.4016 20.625L27.5758 29.4508L24.9242 26.7992L31.0983 20.625L24.9242 14.4508ZM16.9005 31.5668L20.5995 32.1833L24.3495 9.68325L20.6505 9.06675L16.9005 31.5668Z" fill="url(#paint0_linear)"/>
<defs>
<linearGradient id="paint0_linear" x1="0" y1="0" x2="20.625" y2="41.25" gradientUnits="userSpaceOnUse">
<stop stop-color="#01DEFF"/>
<stop offset="1" stop-color="#2F7E8A"/>
</linearGradient>
</defs>
</svg>
