<svg width="42" height="42" viewBox="0 0 42 42" fill="none" xmlns="http://www.w3.org/2000/svg">
<g id="24 / maps / route">
<path id="icon" fill-rule="evenodd" clip-rule="evenodd" d="M10.5 38.5C12.7859 38.5 14.7306 37.0391 15.4513 35H30.625C34.9742 35 38.5 31.4742 38.5 27.125C38.5 22.7757 34.9742 19.25 30.625 19.25H11.375C8.95875 19.25 7 17.2912 7 14.875C7 12.4587 8.95875 10.5 11.375 10.5H16.7751L14.5126 12.7625L16.9874 15.2374L23.4749 8.74998L16.9874 2.26254L14.5126 4.73742L16.7751 6.99998H11.375C7.02576 6.99998 3.5 10.5257 3.5 14.875C3.5 19.2242 7.02576 22.75 11.375 22.75H30.625C33.0412 22.75 35 24.7087 35 27.125C35 29.5412 33.0412 31.5 30.625 31.5H15.4513C14.7306 29.4609 12.7859 28 10.5 28C7.6005 28 5.25 30.3505 5.25 33.25C5.25 36.1495 7.6005 38.5 10.5 38.5ZM8.75 33.25C8.75 32.2835 9.5335 31.5 10.5 31.5C11.4665 31.5 12.25 32.2835 12.25 33.25C12.25 34.2165 11.4665 35 10.5 35C9.5335 35 8.75 34.2165 8.75 33.25ZM31.5 3.5C34.3995 3.5 36.75 5.85051 36.75 8.75C36.75 11.6495 34.3995 14 31.5 14C28.6005 14 26.25 11.6495 26.25 8.75C26.25 5.85051 28.6005 3.5 31.5 3.5ZM29.75 8.75C29.75 7.7835 30.5335 7 31.5 7C32.4665 7 33.25 7.7835 33.25 8.75C33.25 9.7165 32.4665 10.5 31.5 10.5C30.5335 10.5 29.75 9.7165 29.75 8.75Z" fill="url(#paint0_linear)"/>
</g>
<defs>
<linearGradient id="paint0_linear" x1="21" y1="2.26254" x2="21" y2="38.5" gradientUnits="userSpaceOnUse">
<stop stop-color="#01DEFF"/>
<stop offset="1" stop-color="#9C9C9C" stop-opacity="0.8"/>
</linearGradient>
</defs>
</svg>
