<svg width="31" height="31" viewBox="0 0 31 31" fill="none" xmlns="http://www.w3.org/2000/svg">
<path fill-rule="evenodd" clip-rule="evenodd" d="M18.5833 6.25001C18.5833 6.69312 18.6301 7.12532 18.7189 7.54194L10.9011 11.4508C9.77062 10.1533 8.10607 9.33334 6.25001 9.33334C2.84425 9.33334 0.0833435 12.0943 0.0833435 15.5C0.0833435 18.9058 2.84425 21.6667 6.25001 21.6667C8.10607 21.6667 9.77061 20.8467 10.9011 19.5492L18.7189 23.4581C18.6301 23.8747 18.5833 24.3069 18.5833 24.75C18.5833 28.1558 21.3443 30.9167 24.75 30.9167C28.1558 30.9167 30.9167 28.1558 30.9167 24.75C30.9167 21.3443 28.1558 18.5833 24.75 18.5833C22.8939 18.5833 21.2294 19.4033 20.0989 20.7008L12.2811 16.7919C12.3699 16.3753 12.4167 15.9431 12.4167 15.5C12.4167 15.0569 12.3699 14.6247 12.2811 14.2081L20.0989 10.2992C21.2294 11.5967 22.894 12.4167 24.75 12.4167C28.1558 12.4167 30.9167 9.65577 30.9167 6.25001C30.9167 2.84426 28.1558 0.0833435 24.75 0.0833435C21.3443 0.0833435 18.5833 2.84426 18.5833 6.25001ZM9.33336 15.5C9.33336 17.2029 7.95291 18.5833 6.25003 18.5833C4.54715 18.5833 3.1667 17.2029 3.1667 15.5C3.1667 13.7971 4.54715 12.4167 6.25003 12.4167C7.95291 12.4167 9.33336 13.7971 9.33336 15.5ZM24.75 9.33334C26.4529 9.33334 27.8334 7.95289 27.8334 6.25001C27.8334 4.54713 26.4529 3.16668 24.75 3.16668C23.0472 3.16668 21.6667 4.54713 21.6667 6.25001C21.6667 7.95289 23.0472 9.33334 24.75 9.33334ZM27.8334 24.75C27.8334 26.4529 26.4529 27.8333 24.75 27.8333C23.0472 27.8333 21.6667 26.4529 21.6667 24.75C21.6667 23.0471 23.0472 21.6667 24.75 21.6667C26.4529 21.6667 27.8334 23.0471 27.8334 24.75Z" fill="url(#paint0_linear)"/>
<defs>
<linearGradient id="paint0_linear" x1="15.5" y1="0.0833435" x2="15.5" y2="30.9167" gradientUnits="userSpaceOnUse">
<stop stop-color="#01DEFF"/>
<stop offset="1" stop-color="#9C9C9C" stop-opacity="0.8"/>
</linearGradient>
</defs>
</svg>
