<svg width="38" height="26" viewBox="0 0 38 26" fill="none" xmlns="http://www.w3.org/2000/svg">
<path fill-rule="evenodd" clip-rule="evenodd" d="M35.2857 3.71429C36.3114 3.71429 37.1429 2.88281 37.1429 1.85714C37.1429 0.831471 36.3114 0 35.2857 0H1.85714C0.831471 0 0 0.831471 0 1.85714C0 2.88281 0.831474 3.71429 1.85715 3.71429H35.2857ZM35.2857 11.1429C36.3114 11.1429 37.1429 11.9743 37.1429 13C37.1429 14.0257 36.3114 14.8572 35.2857 14.8572H1.85714C0.831471 14.8572 0 14.0257 0 13C0 11.9743 0.831474 11.1429 1.85715 11.1429H35.2857ZM35.2857 22.2857C36.3114 22.2857 37.1429 23.1172 37.1429 24.1429C37.1429 25.1685 36.3114 26 35.2857 26H1.85714C0.831471 26 0 25.1685 0 24.1429C0 23.1172 0.831474 22.2857 1.85715 22.2857H35.2857Z" fill="white"/>
</svg>
