<svg width="28" height="39" viewBox="0 0 28 39" fill="none" xmlns="http://www.w3.org/2000/svg">
<path fill-rule="evenodd" clip-rule="evenodd" d="M27.9999 0V14H28L27.9999 15.75L27.9999 17.4999L27.9999 20.9899C28.0152 23.6538 26.5289 24.497 22.3848 25.7388C19.9559 26.4666 19.2499 26.8665 19.2499 27.1249C19.2499 28.4682 19.3729 29.3702 19.6352 30.4192C19.5845 30.2164 19.8834 31.3721 19.9494 31.6801C20.0654 32.2217 20.1249 32.7147 20.1249 33.2499C20.1249 36.1564 17.3909 38.4999 14 38.4999C10.609 38.4999 7.87498 36.1564 7.87498 33.2499C7.87498 32.7147 7.93447 32.2217 8.05054 31.6801C8.11654 31.3721 8.41544 30.2164 8.36473 30.4192C8.62697 29.3702 8.74997 28.4682 8.74997 27.1249C8.74997 26.8647 8.04597 26.4658 5.62212 25.7386C1.48349 24.497 0 23.6564 0 20.9999V17.4999V14V0H27.9999ZM3.49996 20.9999V17.5H15.6212H24.4999L24.4999 20.9999C24.5014 21.2632 23.8007 21.6607 21.3801 22.3861L21.3726 22.3883C17.2362 23.6278 15.7499 24.4697 15.7499 27.1249C15.7499 28.7712 15.9113 29.9546 16.2397 31.2681C16.2084 31.1428 16.4791 32.1898 16.5271 32.4135C16.5945 32.7281 16.6249 32.9804 16.6249 33.2499C16.6249 34.0934 15.5673 34.9999 13.9999 34.9999C12.4325 34.9999 11.3749 34.0934 11.3749 33.2499C11.3749 32.9804 11.4054 32.7281 11.4728 32.4135C11.5207 32.1898 11.7915 31.1428 11.7602 31.2681C12.0886 29.9546 12.2499 28.7712 12.2499 27.1249C12.2499 24.4685 10.7664 23.6278 6.62781 22.3862C4.20396 21.6591 3.49996 21.2602 3.49996 20.9999ZM3.49996 14V3.5H6.99996V10.5H10.5V3.5H14V8.74998H17.5V3.5H24.4999V14H3.49996Z" fill="url(#paint0_linear)"/>
<defs>
<linearGradient id="paint0_linear" x1="14" y1="0" x2="14" y2="38.4999" gradientUnits="userSpaceOnUse">
<stop stop-color="#9C9C9C" stop-opacity="0.8"/>
<stop offset="1" stop-color="#01DEFF"/>
</linearGradient>
</defs>
</svg>
