<svg width="78" height="71" viewBox="0 0 78 71" fill="none" xmlns="http://www.w3.org/2000/svg">
<path fill-rule="evenodd" clip-rule="evenodd" d="M12.6981 54.7134L18.7794 52.1867L7.4093 24.8213L49.9777 7.13456L51.2411 10.1752L57.3223 7.64849L56.0589 4.60789C54.6635 1.24933 50.8096 -0.342086 47.4511 1.05336L4.88263 18.7401C1.52407 20.1355 -0.0673446 23.9894 1.3281 27.348L12.6981 54.7134ZM57.3223 7.64852L42.1193 13.9652C38.7607 15.3607 37.1693 19.2145 38.5648 22.5731L49.9348 49.9385L16.4882 63.8352L15.2248 60.7946L48.6715 46.8979L46.1448 40.8167L6.61695 57.2401L10.407 66.3619C11.8024 69.7205 15.6563 71.3119 19.0148 69.9164L58.5279 53.4992L58.5427 53.493L73.7457 47.1764C77.1043 45.7809 78.6957 41.927 77.3002 38.5685L65.9302 11.203C64.5347 7.84449 60.6809 6.25308 57.3223 7.64852ZM56.016 47.4119L44.646 20.0464L59.849 13.7297L71.219 41.0952L56.016 47.4119Z" fill="#448B96"/>
</svg>
