<svg width="90" height="117" viewBox="0 0 90 117" fill="none" xmlns="http://www.w3.org/2000/svg">
<path d="M0 79.4118V90C14.6118 90 26.4706 101.859 26.4706 116.471H37.0588C37.0588 96.0088 20.4618 79.4118 0 79.4118ZM0 100.588V116.471H15.8824C15.8824 107.709 8.76176 100.588 0 100.588ZM0 58.2353V68.8235C26.3118 68.8235 47.6471 90.1588 47.6471 116.471H58.2353C58.2353 84.3088 32.1618 58.2353 0 58.2353ZM79.4118 0.0529411L26.4706 0C20.6206 0 15.8824 4.73823 15.8824 10.5882V49.6059C19.5353 50.4794 23.0824 51.5647 26.4706 52.9941V21.1765H79.4118V90H63.3706C66.1235 96.5912 67.8176 103.738 68.4 111.176H79.4118C85.2618 111.176 90 106.438 90 100.588V10.5882C90 4.73823 85.2618 0.0529411 79.4118 0.0529411Z" fill="white"/>
</svg>
