<svg width="118" height="119" viewBox="0 0 118 119" fill="none" xmlns="http://www.w3.org/2000/svg">
<path d="M118 22.774L90.8895 0.0295L83.308 9.0565L110.419 31.801L118 22.774ZM34.692 9.027L27.1105 0L0 22.7445L7.5815 31.7715L34.692 9.027ZM58.9705 12.626C29.618 12.626 5.9 36.403 5.9 65.726C5.9 95.049 29.618 118.826 58.9705 118.826C88.323 118.826 112.1 95.049 112.1 65.726C112.1 36.403 88.323 12.626 58.9705 12.626ZM59 107.026C36.1965 107.026 17.7 88.5295 17.7 65.726C17.7 42.9225 36.1965 24.426 59 24.426C81.8035 24.426 100.3 42.9225 100.3 65.726C100.3 88.5295 81.833 107.026 59 107.026ZM50.3565 74.7235L37.8485 62.2155L31.5945 68.4695L50.3565 87.2315L85.786 51.802L79.532 45.548L50.3565 74.7235Z" fill="white"/>
</svg>
